REM DIRINDEX 1\2\6,1\2\7,1\2\8,1\3\9,1\3\10,1\3\11,1\4\12,1\4\13,1\4\14,1\5\15,1\5\16,1\5\17,1\5\18
REM DIRNAME cjc019,folder01,folder02,folder03,folder04,folder05,folder06,folder07,folder08,folder09,folder10,folder11,folder12,folder13,folder14,folder15,folder16,folder17
TITLE ""
FILE "2Q_t_0230-0247.mp3" MP3
  TRACK 01 AUDIO
    TITLE "13:cjc019_2516"
    INDEX 01 00:00:00
  TRACK 02 AUDIO
    TITLE "0:"
    INDEX 01 00:00:70
  TRACK 03 AUDIO
    TITLE "14:cjc019_2517"
    INDEX 01 00:01:60
  TRACK 04 AUDIO
    TITLE "0:"
    INDEX 01 00:05:44
  TRACK 05 AUDIO
    TITLE "13:cjc019_2518"
    INDEX 01 00:06:26
  TRACK 06 AUDIO
    TITLE "0:"
    INDEX 01 00:07:56
  TRACK 07 AUDIO
    TITLE "14:cjc019_2519"
    INDEX 01 00:08:42
  TRACK 08 AUDIO
    TITLE "0:"
    INDEX 01 00:14:27
  TRACK 09 AUDIO
    TITLE "13:cjc019_2520"
    INDEX 01 00:15:03
  TRACK 10 AUDIO
    TITLE "0:"
    INDEX 01 00:16:16
  TRACK 11 AUDIO
    TITLE "14:cjc019_2521"
    INDEX 01 00:16:73
  TRACK 12 AUDIO
    TITLE "0:"
    INDEX 01 00:17:74
  TRACK 13 AUDIO
    TITLE "13:cjc019_2522"
    INDEX 01 00:18:52
  TRACK 14 AUDIO
    TITLE "0:"
    INDEX 01 00:19:60
  TRACK 15 AUDIO
    TITLE "14:cjc019_2523"
    INDEX 01 00:20:47
  TRACK 16 AUDIO
    TITLE "0:"
    INDEX 01 00:24:12
  TRACK 17 AUDIO
    TITLE "13:cjc019_2524"
    INDEX 01 00:24:74
  TRACK 18 AUDIO
    TITLE "0:"
    INDEX 01 00:26:26
  TRACK 19 AUDIO
    TITLE "14:cjc019_2525"
    INDEX 01 00:27:02
  TRACK 20 AUDIO
    TITLE "0:"
    INDEX 01 00:29:66
  TRACK 21 AUDIO
    TITLE "13:cjc019_2526"
    INDEX 01 00:30:42
  TRACK 22 AUDIO
    TITLE "0:"
    INDEX 01 00:32:09
  TRACK 23 AUDIO
    TITLE "14:cjc019_2527"
    INDEX 01 00:32:68
  TRACK 24 AUDIO
    TITLE "0:"
    INDEX 01 00:34:14
  TRACK 25 AUDIO
    TITLE "13:cjc019_2528"
    INDEX 01 00:34:73
  TRACK 26 AUDIO
    TITLE "0:"
    INDEX 01 00:36:21
  TRACK 27 AUDIO
    TITLE "14:cjc019_2529"
    INDEX 01 00:36:70
  TRACK 28 AUDIO
    TITLE "0:"
    INDEX 01 00:38:06
  TRACK 29 AUDIO
    TITLE "13:cjc019_2530"
    INDEX 01 00:38:57
  TRACK 30 AUDIO
    TITLE "0:"
    INDEX 01 00:39:72
  TRACK 31 AUDIO
    TITLE "14:cjc019_2531"
    INDEX 01 00:40:56
  TRACK 32 AUDIO
    TITLE "0:"
    INDEX 01 00:41:51
  TRACK 33 AUDIO
    TITLE "13:cjc019_2532"
    INDEX 01 00:42:25
  TRACK 34 AUDIO
    TITLE "0:"
    INDEX 01 00:43:33
  TRACK 35 AUDIO
    TITLE "14:cjc019_2533"
    INDEX 01 00:44:16
  TRACK 36 AUDIO
    TITLE "0:"
    INDEX 01 00:46:49
  TRACK 37 AUDIO
    TITLE "13:cjc019_2534"
    INDEX 01 00:47:27
  TRACK 38 AUDIO
    TITLE "0:"
    INDEX 01 00:48:34
  TRACK 39 AUDIO
    TITLE "14:cjc019_2535"
    INDEX 01 00:49:16
  TRACK 40 AUDIO
    TITLE "0:"
    INDEX 01 00:52:53
  TRACK 41 AUDIO
    TITLE "13:cjc019_2536"
    INDEX 01 00:53:31
  TRACK 42 AUDIO
    TITLE "0:"
    INDEX 01 00:54:46
  TRACK 43 AUDIO
    TITLE "14:cjc019_2537"
    INDEX 01 00:55:28
  TRACK 44 AUDIO
    TITLE "0:"
    INDEX 01 00:56:37
  TRACK 45 AUDIO
    TITLE "13:cjc019_2538"
    INDEX 01 00:57:15
  TRACK 46 AUDIO
    TITLE "0:"
    INDEX 01 00:58:32
  TRACK 47 AUDIO
    TITLE "14:cjc019_2539"
    INDEX 01 00:59:10
  TRACK 48 AUDIO
    TITLE "0:"
    INDEX 01 01:01:27
  TRACK 49 AUDIO
    TITLE "13:cjc019_2540"
    INDEX 01 01:02:08
  TRACK 50 AUDIO
    TITLE "0:"
    INDEX 01 01:03:22
  TRACK 51 AUDIO
    TITLE "14:cjc019_2541"
    INDEX 01 01:04:01
  TRACK 52 AUDIO
    TITLE "0:"
    INDEX 01 01:06:30
  TRACK 53 AUDIO
    TITLE "13:cjc019_2542"
    INDEX 01 01:07:10
  TRACK 54 AUDIO
    TITLE "0:"
    INDEX 01 01:08:17
  TRACK 55 AUDIO
    TITLE "14:cjc019_2543"
    INDEX 01 01:09:01
  TRACK 56 AUDIO
    TITLE "0:"
    INDEX 01 01:12:30
  TRACK 57 AUDIO
    TITLE "13:cjc019_2544"
    INDEX 01 01:13:00
  TRACK 58 AUDIO
    TITLE "0:"
    INDEX 01 01:14:25
  TRACK 59 AUDIO
    TITLE "14:cjc019_2545"
    INDEX 01 01:15:03
  TRACK 60 AUDIO
    TITLE "0:"
    INDEX 01 01:16:14
  TRACK 61 AUDIO
    TITLE "13:cjc019_2546"
    INDEX 01 01:16:67
  TRACK 62 AUDIO
    TITLE "0:"
    INDEX 01 01:18:27
  TRACK 63 AUDIO
    TITLE "14:cjc019_2547"
    INDEX 01 01:19:09
  TRACK 64 AUDIO
    TITLE "0:"
    INDEX 01 01:22:07
  TRACK 65 AUDIO
    TITLE "13:cjc019_2548"
    INDEX 01 01:22:62
  TRACK 66 AUDIO
    TITLE "0:"
    INDEX 01 01:24:20
  TRACK 67 AUDIO
    TITLE "14:cjc019_2549"
    INDEX 01 01:24:73
  TRACK 68 AUDIO
    TITLE "0:"
    INDEX 01 01:28:39
  TRACK 69 AUDIO
    TITLE "13:cjc019_2550"
    INDEX 01 01:29:17
  TRACK 70 AUDIO
    TITLE "0:"
    INDEX 01 01:30:44
  TRACK 71 AUDIO
    TITLE "14:cjc019_2551"
    INDEX 01 01:31:26
  TRACK 72 AUDIO
    TITLE "0:"
    INDEX 01 01:33:46
